<svg width="1060" height="188" viewBox="0 0 1060 188" fill="none" xmlns="http://www.w3.org/2000/svg">
<path d="M1026.53 105.136V68.4207C1026.53 60.2618 1026.41 54.9358 1026.07 49.9498H1038.65L1039.1 61.1684H1039.56C1042.5 52.6695 1049.53 48.59 1055.99 48.59C1057.35 48.59 1058.25 48.7033 1059.5 48.93V62.4149C1058.14 62.1882 1056.78 61.9616 1054.85 61.9616C1047.37 61.9616 1042.62 66.381 1041.37 72.8401C1041.26 74.0866 1041.14 75.4464 1041.14 76.6929V105.136H1026.53Z" fill="#231815"/>
<path d="M1013.99 81.5656H973.427C973.881 90.8577 982.265 95.5038 992.122 95.5038C999.26 95.5038 1004.25 94.4839 1009.12 92.7841L1011.27 102.643C1006.06 104.796 999.147 106.496 990.196 106.496C971.048 106.496 959.605 95.1638 959.605 78.2794C959.605 64.1146 969.009 48.59 988.723 48.59C1008.78 48.59 1014.56 64.7945 1014.56 76.013C1014.56 78.3927 1014.33 80.5458 1013.99 81.5656ZM973.427 71.4803H1000.85C1000.85 67.6275 998.807 58.3354 987.817 58.3354C978.186 58.3354 974.107 66.1544 973.427 71.4803Z" fill="#231815"/>
<path d="M932.59 105.136V24H947.205V105.136H932.59Z" fill="#231815"/>
<path d="M901.609 105.136V24H916.225V105.136H901.609Z" fill="#231815"/>
<path d="M886.549 105.136H873.406L872.386 98.79H872.046C868.534 103.209 862.189 106.496 854.258 106.496C842.021 106.496 835.676 97.9968 835.676 90.0645C835.676 76.2397 848.253 68.874 871.14 68.9873V68.1941C871.14 65.3611 870.007 58.6753 859.016 58.6753C853.125 58.6753 846.667 60.6018 842.588 63.0948L839.755 53.8027C844.401 50.9697 851.992 48.59 861.282 48.59C880.204 48.59 885.642 60.2618 885.642 72.5002V91.651C885.642 96.8636 885.982 101.85 886.549 105.136ZM871.593 85.0785V78.2794C860.036 78.1661 850.292 80.4324 850.292 88.478C850.292 93.5774 853.918 96.1837 858.903 96.1837C865.361 96.1837 869.667 92.1042 871.14 88.1381C871.48 87.1182 871.593 85.985 871.593 85.0785Z" fill="#231815"/>
<path d="M799.868 37.2582L814.031 33.8586V49.9498H828.193V60.9417H814.031V83.832C814.031 90.6311 815.617 94.5972 821.735 94.5972C824.454 94.5972 826.381 94.2573 827.627 93.9173L827.967 104.909C825.814 105.702 821.735 106.496 817.09 106.496C811.538 106.496 807.006 104.456 804.287 101.623C801.228 98.2234 799.868 92.7841 799.868 85.8717V60.9417H791.597V49.9498H799.868V37.2582Z" fill="#231815"/>
<path d="M742.64 102.416L745.585 91.8776C748.984 93.9173 755.782 96.1837 761.221 96.1837C767.906 96.1837 770.738 93.5774 770.738 90.0645C770.738 86.2117 768.132 84.5119 760.881 82.3589C749.211 79.0726 744.226 72.9534 744.226 66.1544C744.226 56.409 752.723 48.59 766.546 48.59C773.118 48.59 779.122 50.1765 782.522 52.1029L779.689 62.1882C777.31 60.8284 772.098 58.7887 766.659 58.7887C761.334 58.7887 758.388 61.055 758.388 64.5679C758.388 68.3074 761.448 70.0072 769.039 72.2735C779.916 75.4464 784.788 80.5458 784.901 89.0446C784.901 98.6767 777.083 106.496 761.108 106.496C753.63 106.496 747.172 104.796 742.64 102.416Z" fill="#231815"/>
<path d="M676.113 105.136V66.6076C676.113 60.2618 675.887 54.7092 675.66 49.9498H688.463L689.143 58.902H689.483C691.862 54.5959 698.32 48.59 708.631 48.59C718.375 48.59 730.045 54.4826 730.045 73.52V105.136H715.429V75.3331C715.429 66.6076 711.916 60.3751 703.532 60.3751C697.187 60.3751 692.882 64.7945 691.296 68.9873C690.842 70.1205 690.729 71.8203 690.729 73.1801V105.136H676.113Z" fill="#231815"/>
<path d="M658 105.386L664.064 105.002C664.921 104.948 665.336 106.173 664.67 106.788L650.596 120.775C650.272 121.074 649.808 121.075 649.483 120.777L635.332 106.811C634.662 106.196 635.079 104.965 635.938 105.021L642 105.422V21H658V105.386Z" fill="#D8141C"/>
<path d="M605.929 81.5656H565.367C565.82 90.8577 574.204 95.5038 584.061 95.5038C591.199 95.5038 596.185 94.4839 601.057 92.7841L603.209 102.643C597.997 104.796 591.086 106.496 582.135 106.496C562.987 106.496 551.544 95.1638 551.544 78.2794C551.544 64.1146 560.948 48.59 580.662 48.59C600.717 48.59 606.495 64.7945 606.495 76.013C606.495 78.3927 606.268 80.5458 605.929 81.5656ZM565.367 71.4803H592.786C592.786 67.6275 590.746 58.3354 579.756 58.3354C570.125 58.3354 566.047 66.1544 565.367 71.4803Z" fill="#231815"/>
<path d="M516.062 37.2582L530.225 33.8586V49.9498H544.387V60.9417H530.225V83.832C530.225 90.6311 531.811 94.5972 537.929 94.5972C540.649 94.5972 542.575 94.2573 543.821 93.9173L544.161 104.909C542.008 105.702 537.929 106.496 533.284 106.496C527.732 106.496 523.2 104.456 520.481 101.623C517.422 98.2234 516.062 92.7841 516.062 85.8717V60.9417H507.791V49.9498H516.062V37.2582Z" fill="#231815"/>
<path d="M497.431 105.136H482.816V49.9499H497.431V105.136ZM490.18 26.493C495.279 26.493 498.338 29.8925 498.338 34.1986C498.338 38.3914 495.279 41.9043 489.953 41.9043C484.968 41.9043 481.909 38.3914 481.909 34.1986C481.909 30.0058 485.082 26.493 490.18 26.493Z" fill="#231815"/>
<path d="M416.138 101.056L419.537 89.158C424.635 91.9909 432.113 94.5972 440.271 94.5972C449.675 94.5972 454.887 90.5178 454.887 84.2853C454.887 78.6194 451.035 75.2198 440.158 72.0469C426.222 67.8541 417.384 61.395 417.384 49.4966C417.384 36.8049 428.714 27.3995 446.049 27.3995C455.453 27.3995 462.025 29.2126 466.67 31.479L462.931 43.0375C459.985 41.5643 453.867 39.0713 445.709 39.0713C436.192 39.0713 432.34 43.8307 432.34 48.2501C432.34 54.1426 437.212 56.8623 448.202 60.3751C462.591 65.0212 469.843 71.4803 469.843 83.3787C469.843 95.1638 460.778 106.496 439.025 106.496C430.187 106.496 420.896 104.003 416.138 101.056Z" fill="#231815"/>
<path d="M388.103 105.136V24H402.719V105.136H388.103Z" fill="#231815"/>
<path d="M357.122 105.136V24H371.738V105.136H357.122Z" fill="#231815"/>
<path d="M340.783 49.9499V88.4781C340.783 95.1639 340.896 100.716 341.236 105.136H328.433L327.753 95.9571H327.413C325.034 100.037 319.256 106.496 307.926 106.496C297.955 106.496 287.078 100.943 287.078 81.7923V49.9499H301.694V79.0727C301.694 88.7047 304.98 94.7106 313.251 94.7106C319.482 94.7106 323.674 90.6311 325.374 86.5517C325.827 85.4185 326.167 83.9454 326.167 82.4722V49.9499H340.783Z" fill="#231815"/>
<path d="M229 105.136V28.7593H277.493V40.5444H243.616V61.055H275V72.8401H243.616V105.136H229Z" fill="#231815"/>
<path d="M1032.99 163.749V147.363C1032.99 144.664 1032.9 142.303 1032.8 140.279H1038.25L1038.54 144.086H1038.68C1039.69 142.255 1042.44 139.701 1046.82 139.701C1050.97 139.701 1055.93 142.207 1055.93 150.303V163.749H1049.71V151.074C1049.71 147.363 1048.22 144.713 1044.66 144.713C1041.96 144.713 1040.13 146.592 1039.45 148.375C1039.26 148.857 1039.21 149.58 1039.21 150.158V163.749H1032.99Z" fill="#231815"/>
<path d="M1023.04 163.749H1016.82V140.279H1023.04V163.749ZM1019.96 130.303C1022.12 130.303 1023.42 131.749 1023.42 133.58C1023.42 135.363 1022.12 136.857 1019.86 136.857C1017.74 136.857 1016.44 135.363 1016.44 133.58C1016.44 131.797 1017.79 130.303 1019.96 130.303Z" fill="#231815"/>
<path d="M1001.87 140.279H1007.27C1007.17 141.773 1007.07 143.604 1007.07 146.833V160.134C1007.07 164.857 1006.06 168.664 1003.32 171.026C1000.62 173.387 996.859 173.966 993.582 173.966C990.306 173.966 986.74 173.243 984.524 171.845L985.873 167.17C987.559 168.183 990.402 169.243 993.534 169.243C997.678 169.243 1001 167.17 1001 161.917V159.845H1000.91C999.413 162.014 996.763 163.604 993.245 163.604C987.077 163.604 982.355 158.929 982.355 152.134C982.355 144.568 987.8 139.701 993.92 139.701C998.016 139.701 1000.38 141.58 1001.58 143.604H1001.68L1001.87 140.279ZM1000.91 152.954V150.062C1000.91 149.484 1000.86 148.954 1000.71 148.472C999.991 146.014 997.967 144.279 995.124 144.279C991.559 144.279 988.668 147.026 988.668 151.942C988.668 155.556 990.836 159.074 995.124 159.074C997.775 159.074 999.943 157.291 1000.62 155.074C1000.81 154.448 1000.91 153.628 1000.91 152.954Z" fill="#231815"/>
<path d="M974.098 140.279V156.664C974.098 159.508 974.146 161.869 974.29 163.749H968.845L968.556 159.845H968.412C967.4 161.58 964.942 164.327 960.124 164.327C955.884 164.327 951.258 161.966 951.258 153.821V140.279H957.474V152.664C957.474 156.761 958.871 159.315 962.389 159.315C965.039 159.315 966.822 157.58 967.544 155.845C967.737 155.363 967.882 154.737 967.882 154.11V140.279H974.098Z" fill="#231815"/>
<path d="M935.183 163.749V129.243H941.399V163.749H935.183Z" fill="#231815"/>
<path d="M903.533 163.749V131.652C905.846 131.315 909.074 130.978 913.652 130.978C918.277 130.978 921.602 131.99 923.722 133.725C925.698 135.267 927.047 137.821 927.047 141.002C927.047 143.99 926.083 146.592 924.156 148.375C921.65 150.737 917.796 151.893 913.073 151.893C911.772 151.893 910.616 151.845 909.7 151.604V163.749H903.533ZM909.7 135.941V146.785C910.568 147.026 911.724 147.122 913.17 147.122C917.94 147.122 920.928 144.954 920.928 141.146C920.928 137.387 917.988 135.652 913.7 135.652C911.724 135.652 910.375 135.845 909.7 135.941Z" fill="#231815"/>
<path d="M868.224 163.749V148.134C868.224 144.664 868.176 142.399 868.031 140.279H873.38L873.572 145.05H873.765C875.018 141.436 878.005 139.701 880.752 139.701C881.33 139.701 881.716 139.749 882.246 139.845V145.58C881.668 145.484 881.089 145.387 880.27 145.387C877.09 145.387 875.066 147.267 874.536 150.014C874.488 150.544 874.44 151.122 874.44 151.652V163.749H868.224Z" fill="#231815"/>
<path d="M859.896 153.725H842.646C842.838 157.676 846.404 159.652 850.596 159.652C853.632 159.652 855.752 159.219 857.824 158.496L858.74 162.689C856.523 163.604 853.584 164.327 849.777 164.327C841.634 164.327 836.767 159.508 836.767 152.327C836.767 146.303 840.766 139.701 849.151 139.701C857.68 139.701 860.137 146.592 860.137 151.363C860.137 152.375 860.041 153.291 859.896 153.725ZM842.646 149.436H854.307C854.307 147.797 853.439 143.845 848.765 143.845C844.67 143.845 842.935 147.17 842.646 149.436Z" fill="#231815"/>
<path d="M818.682 134.881L824.705 133.435V140.279H830.728V144.954H824.705V154.689C824.705 157.58 825.38 159.267 827.982 159.267C829.138 159.267 829.957 159.122 830.487 158.978L830.632 163.652C829.716 163.99 827.982 164.327 826.006 164.327C823.645 164.327 821.718 163.46 820.561 162.255C819.26 160.809 818.682 158.496 818.682 155.556V144.954H815.164V140.279H818.682V134.881Z" fill="#231815"/>
<path d="M795.1 163.749V148.134C795.1 144.664 795.052 142.399 794.908 140.279H800.256L800.449 145.05H800.642C801.895 141.436 804.882 139.701 807.629 139.701C808.207 139.701 808.592 139.749 809.122 139.845V145.58C808.544 145.484 807.966 145.387 807.147 145.387C803.967 145.387 801.943 147.267 801.413 150.014C801.365 150.544 801.316 151.122 801.316 151.652V163.749H795.1Z" fill="#231815"/>
<path d="M785.7 163.749H780.111L779.677 161.05H779.532C778.039 162.929 775.34 164.327 771.967 164.327C766.763 164.327 764.065 160.713 764.065 157.339C764.065 151.46 769.413 148.327 779.147 148.375V148.038C779.147 146.833 778.665 143.99 773.991 143.99C771.485 143.99 768.739 144.809 767.004 145.869L765.8 141.917C767.775 140.713 771.004 139.701 774.955 139.701C783.002 139.701 785.315 144.664 785.315 149.869V158.014C785.315 160.231 785.459 162.351 785.7 163.749ZM779.34 155.219V152.327C774.425 152.279 770.281 153.243 770.281 156.664C770.281 158.833 771.823 159.942 773.943 159.942C776.689 159.942 778.521 158.207 779.147 156.52C779.291 156.086 779.34 155.604 779.34 155.219Z" fill="#231815"/>
<path d="M745.841 134.881L751.864 133.435V140.279H757.887V144.954H751.864V154.689C751.864 157.58 752.539 159.267 755.141 159.267C756.297 159.267 757.116 159.122 757.646 158.978L757.791 163.652C756.875 163.99 755.141 164.327 753.165 164.327C750.804 164.327 748.876 163.46 747.72 162.255C746.419 160.809 745.841 158.496 745.841 155.556V144.954H742.323V140.279H745.841V134.881Z" fill="#231815"/>
<path d="M713.666 162.014L715.111 156.954C717.28 158.158 720.46 159.267 723.929 159.267C727.929 159.267 730.145 157.532 730.145 154.881C730.145 152.472 728.507 151.026 723.881 149.676C717.954 147.893 714.196 145.146 714.196 140.086C714.196 134.688 719.014 130.688 726.387 130.688C730.386 130.688 733.181 131.46 735.156 132.423L733.566 137.339C732.314 136.713 729.711 135.652 726.242 135.652C722.195 135.652 720.556 137.676 720.556 139.556C720.556 142.062 722.628 143.219 727.302 144.713C733.422 146.688 736.506 149.435 736.506 154.496C736.506 159.508 732.651 164.327 723.399 164.327C719.641 164.327 715.69 163.267 713.666 162.014Z" fill="#231815"/>
<path d="M692.867 153.725H675.616C675.809 157.676 679.375 159.652 683.567 159.652C686.603 159.652 688.723 159.219 690.795 158.496L691.71 162.689C689.494 163.604 686.554 164.327 682.748 164.327C674.604 164.327 669.738 159.508 669.738 152.327C669.738 146.303 673.737 139.701 682.121 139.701C690.65 139.701 693.108 146.592 693.108 151.363C693.108 152.375 693.011 153.291 692.867 153.725ZM675.616 149.436H687.277C687.277 147.797 686.41 143.845 681.736 143.845C677.64 143.845 675.905 147.17 675.616 149.436Z" fill="#231815"/>
<path d="M651.652 134.881L657.676 133.435V140.279H663.699V144.954H657.676V154.689C657.676 157.58 658.35 159.267 660.952 159.267C662.109 159.267 662.928 159.122 663.458 158.978L663.602 163.652C662.687 163.99 660.952 164.327 658.977 164.327C656.615 164.327 654.688 163.46 653.532 162.255C652.231 160.809 651.652 158.496 651.652 155.556V144.954H648.135V140.279H651.652V134.881Z" fill="#231815"/>
<path d="M640.734 163.749H634.518V140.279H640.734V163.749ZM637.65 130.303C639.818 130.303 641.119 131.749 641.119 133.58C641.119 135.363 639.818 136.857 637.553 136.857C635.433 136.857 634.132 135.363 634.132 133.58C634.132 131.797 635.481 130.303 637.65 130.303Z" fill="#231815"/>
<path d="M608.147 162.592L609.4 158.11C610.846 158.978 613.737 159.942 616.05 159.942C618.893 159.942 620.097 158.833 620.097 157.339C620.097 155.701 618.989 154.978 615.905 154.062C610.942 152.664 608.822 150.062 608.822 147.17C608.822 143.026 612.436 139.701 618.315 139.701C621.109 139.701 623.663 140.375 625.109 141.195L623.904 145.484C622.892 144.905 620.676 144.038 618.363 144.038C616.098 144.038 614.845 145.002 614.845 146.496C614.845 148.086 616.146 148.809 619.375 149.773C624 151.122 626.072 153.291 626.121 156.905C626.121 161.002 622.796 164.327 616.002 164.327C612.821 164.327 610.075 163.604 608.147 162.592Z" fill="#231815"/>
<path d="M581.026 163.749H575.725C575.822 162.207 575.918 159.652 575.918 157.098V129.243H582.134V143.749H582.23C583.724 141.339 586.615 139.701 590.567 139.701C596.831 139.701 601.457 144.472 601.408 151.701C601.408 160.134 595.433 164.327 589.699 164.327C586.374 164.327 583.242 163.17 581.363 159.99H581.267L581.026 163.749ZM582.134 150.688V153.58C582.134 154.062 582.182 154.496 582.23 154.978C582.857 157.339 585.218 159.508 588.302 159.508C592.446 159.508 595.096 156.616 595.096 151.893C595.096 147.845 592.783 144.423 588.398 144.423C585.652 144.423 583.05 146.207 582.327 149.146C582.182 149.628 582.134 150.11 582.134 150.688Z" fill="#231815"/>
<path d="M567.591 153.725H550.34C550.533 157.676 554.099 159.652 558.291 159.652C561.326 159.652 563.447 159.219 565.519 158.496L566.434 162.689C564.218 163.604 561.278 164.327 557.472 164.327C549.328 164.327 544.462 159.508 544.462 152.327C544.462 146.303 548.461 139.701 556.845 139.701C565.374 139.701 567.831 146.592 567.831 151.363C567.831 152.375 567.735 153.291 567.591 153.725ZM550.34 149.436H562.001C562.001 147.797 561.134 143.845 556.46 143.845C552.364 143.845 550.629 147.17 550.34 149.436Z" fill="#231815"/>
<path d="M512.818 163.749H505.88L497.255 131.267H503.952L507.373 146.207C508.241 150.207 509.156 154.448 509.735 157.435H509.831C510.361 154.255 511.325 150.255 512.337 146.11L516.095 131.267H523.034L526.455 146.544C527.322 150.399 528.045 154.062 528.527 157.291H528.623C529.25 153.966 530.117 150.207 531.081 146.158L534.887 131.267H541.248L531.611 163.749H524.913L521.251 147.652C520.335 143.845 519.709 140.954 519.323 137.532H519.227C518.649 140.905 518.022 143.845 516.962 147.652L512.818 163.749Z" fill="#231815"/>
<path d="M456.011 140.279H462.902L467.672 152.809C468.154 154.207 468.78 156.134 469.166 157.436H469.31C469.744 156.086 470.226 154.255 470.708 152.713L474.852 140.279H481.597L475.189 156.038C471.334 166.014 468.973 169.532 466.178 171.701C463.672 173.676 461.119 174.351 459.48 174.496L458.228 169.291C459.191 169.146 460.492 168.713 461.745 167.942C462.95 167.267 464.443 165.869 465.407 164.038C465.648 163.701 465.793 163.315 465.793 163.026C465.793 162.785 465.744 162.399 465.455 161.773L456.011 140.279Z" fill="#231815"/>
<path d="M432.773 162.592L434.026 158.11C435.471 158.978 438.362 159.942 440.675 159.942C443.518 159.942 444.723 158.833 444.723 157.339C444.723 155.701 443.615 154.978 440.531 154.062C435.568 152.664 433.447 150.062 433.447 147.17C433.447 143.026 437.061 139.701 442.94 139.701C445.735 139.701 448.289 140.375 449.734 141.195L448.529 145.484C447.518 144.905 445.301 144.038 442.988 144.038C440.723 144.038 439.471 145.002 439.471 146.496C439.471 148.086 440.772 148.809 444 149.773C448.626 151.122 450.698 153.291 450.746 156.905C450.746 161.002 447.421 164.327 440.627 164.327C437.447 164.327 434.7 163.604 432.773 162.592Z" fill="#231815"/>
<path d="M424.866 163.749H419.277L418.843 161.05H418.699C417.205 162.929 414.506 164.327 411.134 164.327C405.929 164.327 403.231 160.713 403.231 157.339C403.231 151.46 408.58 148.327 418.313 148.375V148.038C418.313 146.833 417.831 143.99 413.157 143.99C410.652 143.99 407.905 144.809 406.17 145.869L404.966 141.917C406.941 140.713 410.17 139.701 414.121 139.701C422.168 139.701 424.481 144.664 424.481 149.869V158.014C424.481 160.231 424.625 162.351 424.866 163.749ZM418.506 155.219V152.327C413.591 152.279 409.447 153.243 409.447 156.664C409.447 158.833 410.989 159.942 413.109 159.942C415.856 159.942 417.687 158.207 418.313 156.52C418.458 156.086 418.506 155.604 418.506 155.219Z" fill="#231815"/>
<path d="M395.054 144.472V149.484H381.321V158.737H396.644V163.749H375.105V131.267H395.873V136.279H381.321V144.472H395.054Z" fill="#231815"/>
<path d="M354.037 148.857H367.096V153.05H354.037V148.857Z" fill="#231815"/>
<path d="M346.661 163.749H341.071L340.638 161.05H340.493C338.999 162.929 336.301 164.327 332.928 164.327C327.724 164.327 325.026 160.713 325.026 157.339C325.026 151.46 330.374 148.327 340.108 148.375V148.038C340.108 146.833 339.626 143.99 334.952 143.99C332.446 143.99 329.7 144.809 327.965 145.869L326.76 141.917C328.736 140.713 331.964 139.701 335.915 139.701C343.962 139.701 346.275 144.664 346.275 149.869V158.014C346.275 160.231 346.42 162.351 346.661 163.749ZM340.3 155.219V152.327C335.385 152.279 331.241 153.243 331.241 156.664C331.241 158.833 332.783 159.942 334.904 159.942C337.65 159.942 339.481 158.207 340.108 156.52C340.252 156.086 340.3 155.604 340.3 155.219Z" fill="#231815"/>
<path d="M305.791 163.749V148.134C305.791 144.664 305.742 142.399 305.598 140.279H310.946L311.139 145.05H311.332C312.585 141.436 315.572 139.701 318.319 139.701C318.897 139.701 319.283 139.749 319.813 139.845V145.58C319.234 145.484 318.656 145.387 317.837 145.387C314.657 145.387 312.633 147.267 312.103 150.014C312.055 150.544 312.007 151.122 312.007 151.652V163.749H305.791Z" fill="#231815"/>
<path d="M285.784 134.881L291.807 133.435V140.279H297.83V144.954H291.807V154.689C291.807 157.58 292.481 159.267 295.083 159.267C296.24 159.267 297.059 159.122 297.589 158.978L297.734 163.652C296.818 163.99 295.083 164.327 293.108 164.327C290.747 164.327 288.819 163.46 287.663 162.255C286.362 160.809 285.784 158.496 285.784 155.556V144.954H282.266V140.279H285.784V134.881Z" fill="#231815"/>
<path d="M268.649 163.749V129.243H274.865V163.749H268.649Z" fill="#231815"/>
<path d="M230.693 131.267H236.909V149.387C236.909 156.086 239.848 159.46 244.57 159.46C249.485 159.46 252.425 156.134 252.425 149.387V131.267H258.641V149.146C258.641 159.701 252.858 164.327 244.281 164.327C236.234 164.327 230.693 160.038 230.693 149.146V131.267Z" fill="#231815"/>
<path d="M74.2466 127.637L51.9781 127.687C51.6778 127.687 51.3776 127.886 51.2775 128.184L49.5761 132.909C49.4259 133.406 49.7762 133.904 50.2766 133.904H58.9338C59.5844 133.904 59.9347 134.699 59.4843 135.147L45.6728 149.42H45.7229L52.8288 171.65C52.9789 172.148 52.6286 172.595 52.1282 172.595H45.1724C44.8221 172.595 44.5719 172.396 44.4718 172.098L40.9189 160.709C40.7187 160.013 39.7679 160.013 39.5177 160.66L36.6153 168.667C36.5652 168.816 36.5652 168.965 36.6153 169.114L39.2675 178.812C39.3676 179.11 39.6678 179.359 39.9681 179.359H62.3867C62.8871 179.359 63.2374 178.862 63.0873 178.414L54.0298 150.415C53.9297 150.166 54.0298 149.868 54.2299 149.669L74.797 128.881C75.2474 128.433 74.8971 127.637 74.2466 127.637Z" fill="black"/>
<path d="M47.8748 116L34.3135 116.05C34.0133 116.05 33.713 116.249 33.613 116.547L31.8615 121.272C31.6613 121.769 32.0617 122.266 32.5621 122.266H38.2668C38.7672 122.266 39.1175 122.764 38.9674 123.261L22.804 167.224C22.5538 167.871 21.653 167.871 21.4028 167.224L9.79317 135.495C9.59301 134.998 9.99334 134.5 10.4938 134.5H16.3486C16.6489 134.5 16.9491 134.699 17.0492 134.998L21.2527 146.436C21.5029 147.083 22.4037 147.083 22.6539 146.436L29.1593 128.632C29.3594 128.135 28.9591 127.637 28.4587 127.637H0.735647C0.235231 127.637 -0.11506 128.135 0.0350646 128.632L21.3528 187.515C21.603 188.162 22.5037 188.162 22.7539 187.515L48.5754 116.995C48.7255 116.497 48.3752 116 47.8748 116Z" fill="#D8141C"/>
<path d="M122.191 145C122.662 145 123.07 145.329 123.169 145.79L124.619 151.621C124.674 151.844 124.875 152 125.104 152H135.888C136.441 152 136.888 152.448 136.888 153V163C136.888 163.552 136.441 164 135.888 164H80.9998C80.4475 164 79.9998 163.552 79.9998 163V153C79.9998 152.448 80.4475 152 80.9998 152H90.8953C91.1246 152 91.3241 151.844 91.3796 151.621L92.8308 145.79C92.9298 145.329 93.3371 145 93.8083 145H122.191ZM171 71C171.552 71.0001 172 71.4478 172 72V139C172 139.552 171.552 140 171 140H76.9167L81.7625 135.151L81.7371 135.127C84.4059 132.008 84.528 128.237 83.071 125.198C83.0391 125.132 83.0049 125.066 82.9714 125H159.5C159.776 125 160 124.776 160 124.5V83.5C160 83.2239 159.776 83.0001 159.5 83H119.391L118.267 71H171ZM107 129C105.067 129 103.5 130.567 103.5 132.5C103.5 134.433 105.067 136 107 136C108.933 136 110.5 134.433 110.5 132.5C110.5 130.567 108.933 129 107 129ZM94.7156 83H55.4998C55.2237 83.0001 54.9998 83.2239 54.9998 83.5V111.135C53.3254 109.256 50.8698 108 47.8376 108H47.8054L42.9998 108.018V72C42.9998 71.4478 43.4475 71.0001 43.9998 71H95.8376L94.7156 83ZM145 16C145.552 16.0001 146 16.4478 146 17V63C146 63.5522 145.552 63.9999 145 64H117.611L116.862 56H137.5C137.776 55.9999 138 55.7761 138 55.5V33.5C138 33.2239 137.776 33.0001 137.5 33H78.4998C78.2237 33.0001 77.9998 33.2239 77.9998 33.5V55.5C77.9998 55.7761 78.2237 55.9999 78.4998 56H97.241L96.4929 64H70.9998C70.4475 63.9999 69.9998 63.5522 69.9998 63V17C69.9998 16.4478 70.4475 16.0001 70.9998 16H145ZM83.4998 21C81.5668 21.0001 79.9998 22.567 79.9998 24.5C79.9998 26.433 81.5668 27.9999 83.4998 28C85.4327 27.9999 86.9998 26.4329 86.9998 24.5C86.9998 22.5671 85.4327 21.0001 83.4998 21ZM94.4998 21C92.5668 21.0001 90.9998 22.567 90.9998 24.5C90.9998 26.433 92.5668 27.9999 94.4998 28C96.4327 27.9999 97.9998 26.4329 97.9998 24.5C97.9998 22.5671 96.4327 21.0001 94.4998 21ZM105.5 21C103.567 21.0001 102 22.567 102 24.5C102 26.433 103.567 27.9999 105.5 28C107.433 27.9999 109 26.4329 109 24.5C109 22.5671 107.433 21.0001 105.5 21Z" fill="black"/>
<path d="M88.4206 98.095C87.5714 97.4067 88.0998 96.0266 89.1882 96.0902L101.173 96.7904L106.325 41.6532C106.359 41.2829 106.668 41 107.037 41C107.407 41 107.715 41.2829 107.75 41.6531L112.902 96.7355L124.814 96.0679C125.9 96.0071 126.427 97.3813 125.582 98.0705L107.754 113.748C107.344 114.083 106.757 114.084 106.346 113.751L88.4206 98.095Z" fill="#D8141C"/>
<path d="M47 0.5C46.4477 0.5 46 0.947715 46 1.5V41.5C46 42.0523 46.4477 42.5 47 42.5H63V34.5H54V8.5H90H96V1.5C96 0.947715 95.5523 0.5 95 0.5H47Z" fill="black"/>
<path d="M168 0.5C168.552 0.5 169 0.947715 169 1.5V41.5C169 42.0523 168.552 42.5 168 42.5H152V34.5H161V8.5H125H119V1.5C119 0.947715 119.448 0.5 120 0.5H168Z" fill="black"/>
</svg>
