<svg xmlns="http://www.w3.org/2000/svg" width="908" height="160" fill="none"><g clip-path="url(#a)"><path fill="#000" d="m163.694 25.82-49.096.111c-.662 0-1.324.441-1.545 1.104l-3.751 10.482c-.331 1.104.441 2.207 1.545 2.207h19.086c1.435 0 2.207 1.766 1.214 2.759l-30.45 31.669h.11l15.666 49.324c.331 1.103-.441 2.096-1.544 2.096H99.593c-.772 0-1.324-.441-1.544-1.103L90.215 99.2c-.441-1.545-2.537-1.545-3.089-.11l-6.399 17.765c-.11.331-.11.662 0 .993l5.847 21.518c.221.662.883 1.213 1.545 1.213h49.427c1.103 0 1.876-1.103 1.545-2.096l-19.97-62.124c-.22-.552 0-1.214.442-1.656l45.344-46.124c.993-.993.221-2.758-1.213-2.758Z"/><path fill="#D70C18" d="M105.551 0 75.652.11c-.662 0-1.324.442-1.545 1.104l-3.861 10.483c-.441 1.103.441 2.206 1.544 2.206h12.578c1.103 0 1.876 1.104 1.544 2.207l-35.635 97.545c-.552 1.435-2.538 1.435-3.09 0l-25.596-70.4c-.441-1.103.442-2.207 1.545-2.207h12.908c.662 0 1.324.442 1.545 1.104l9.267 25.379c.552 1.434 2.538 1.434 3.09 0l14.342-39.503c.442-1.104-.441-2.207-1.544-2.207H1.622c-1.103 0-1.876 1.103-1.545 2.207l47 130.648c.552 1.434 2.538 1.434 3.09 0l56.929-156.47c.331-1.103-.442-2.206-1.545-2.206Z"/><path fill="#231815" d="M880.068 84.864V53.76c0-6.912-.096-11.424-.384-15.648h10.655l.384 9.504h.384c2.495-7.2 8.446-10.656 13.917-10.656 1.152 0 1.92.096 2.976.288v11.424c-1.152-.192-2.304-.384-3.935-.384-6.335 0-10.367 3.744-11.423 9.216-.096 1.056-.192 2.208-.192 3.264v24.096h-12.382ZM869.446 64.896h-34.363c.384 7.872 7.487 11.808 15.838 11.808 6.047 0 10.27-.864 14.398-2.304l1.823 8.352c-4.415 1.824-10.27 3.264-17.853 3.264-16.221 0-25.916-9.6-25.916-23.904 0-12 7.967-25.152 24.668-25.152 16.99 0 21.885 13.728 21.885 23.232 0 2.016-.192 3.84-.48 4.704Zm-34.363-8.544h23.229c0-3.264-1.728-11.136-11.038-11.136-8.159 0-11.615 6.624-12.191 11.136ZM800.487 84.864V16.128h12.382v68.736h-12.382ZM774.241 84.864V16.128h12.382v68.736h-12.382ZM761.482 84.864h-11.134l-.864-5.376h-.288c-2.976 3.744-8.351 6.528-15.07 6.528-10.366 0-15.741-7.2-15.741-13.92 0-11.712 10.654-17.952 30.043-17.856v-.672c0-2.4-.96-8.064-10.27-8.064-4.992 0-10.463 1.632-13.918 3.744l-2.4-7.872c3.935-2.4 10.366-4.416 18.237-4.416 16.03 0 20.637 9.888 20.637 20.256V73.44c0 4.416.288 8.64.768 11.424Zm-12.67-16.992v-5.76c-9.791-.096-18.045 1.824-18.045 8.64 0 4.32 3.071 6.528 7.295 6.528 5.471 0 9.118-3.456 10.366-6.816.288-.864.384-1.824.384-2.592ZM688.049 27.36l11.998-2.88v13.632h11.998v9.312h-11.998v19.392c0 5.76 1.344 9.12 6.527 9.12 2.304 0 3.935-.288 4.991-.576l.288 9.312c-1.824.672-5.279 1.344-9.214 1.344-4.704 0-8.543-1.728-10.847-4.128-2.591-2.88-3.743-7.488-3.743-13.344v-21.12h-7.007v-9.312h7.007V27.36ZM639.566 82.56l2.496-8.928c2.879 1.728 8.639 3.648 13.246 3.648 5.663 0 8.063-2.208 8.063-5.184 0-3.264-2.208-4.704-8.351-6.528-9.887-2.784-14.11-7.968-14.11-13.728 0-8.256 7.199-14.88 18.909-14.88 5.567 0 10.655 1.344 13.534 2.976l-2.399 8.544c-2.016-1.152-6.431-2.88-11.039-2.88-4.511 0-7.007 1.92-7.007 4.896 0 3.168 2.592 4.608 9.023 6.528 9.215 2.688 13.342 7.008 13.438 14.208 0 8.16-6.623 14.784-20.157 14.784-6.335 0-11.806-1.44-15.646-3.456ZM583.207 84.864v-32.64c0-5.376-.192-10.08-.384-14.112h10.847l.575 7.584h.288c2.016-3.648 7.487-8.736 16.222-8.736 8.255 0 18.141 4.992 18.141 21.12v26.784h-12.382V59.616c0-7.392-2.975-12.672-10.078-12.672-5.376 0-9.023 3.744-10.367 7.296-.384.96-.48 2.4-.48 3.552v27.072h-12.382ZM555.935 20.16h12.382v64.704h-12.382V20.16ZM523.749 64.896h-34.363c.384 7.872 7.487 11.808 15.837 11.808 6.048 0 10.271-.864 14.398-2.304l1.824 8.352c-4.415 1.824-10.27 3.264-17.853 3.264-16.222 0-25.916-9.6-25.916-23.904 0-12 7.966-25.152 24.668-25.152 16.989 0 21.885 13.728 21.885 23.232 0 2.016-.192 3.84-.48 4.704Zm-34.363-8.544h23.228c0-3.264-1.727-11.136-11.038-11.136-8.159 0-11.614 6.624-12.19 11.136ZM447.616 27.36l11.999-2.88v13.632h11.998v9.312h-11.998v19.392c0 5.76 1.343 9.12 6.527 9.12 2.303 0 3.935-.288 4.991-.576l.288 9.312c-1.824.672-5.279 1.344-9.215 1.344-4.703 0-8.542-1.728-10.846-4.128-2.592-2.88-3.744-7.488-3.744-13.344v-21.12h-7.007v-9.312h7.007V27.36ZM431.833 84.864h-12.382V38.112h12.382v46.752ZM425.69 18.24c4.319 0 6.911 2.88 6.911 6.528 0 3.552-2.592 6.528-7.103 6.528-4.224 0-6.815-2.976-6.815-6.528 0-3.552 2.687-6.528 7.007-6.528ZM362.963 81.408l2.88-10.08c4.319 2.4 10.654 4.608 17.565 4.608 7.967 0 12.382-3.456 12.382-8.736 0-4.8-3.263-7.68-12.478-10.368-11.806-3.552-19.293-9.024-19.293-19.104 0-10.752 9.599-18.72 24.284-18.72 7.967 0 13.534 1.536 17.47 3.456l-3.168 9.792c-2.495-1.248-7.679-3.36-14.589-3.36-8.063 0-11.327 4.032-11.327 7.776 0 4.992 4.128 7.296 13.438 10.272 12.19 3.936 18.333 9.408 18.333 19.488 0 9.984-7.678 19.584-26.108 19.584-7.486 0-15.357-2.112-19.389-4.608ZM339.213 84.864V16.128h12.382v68.736h-12.382ZM312.967 84.864V16.128h12.382v68.736h-12.382ZM299.125 38.112v32.64c0 5.664.096 10.368.384 14.112h-10.847l-.576-7.776h-.287c-2.016 3.456-6.911 8.928-16.51 8.928-8.447 0-17.661-4.704-17.661-20.928V38.112h12.382v24.672c0 8.16 2.783 13.248 9.79 13.248 5.28 0 8.831-3.456 10.271-6.912.384-.96.672-2.208.672-3.456V38.112h12.382ZM204.425 84.864V20.16h41.082v9.984h-28.699V47.52h26.587v9.984h-26.587v27.36h-12.383ZM885.547 134.519v-13.881c0-2.287-.082-4.287-.163-6.002h4.613l.244 3.226h.123c.857-1.552 3.184-3.716 6.899-3.716 3.51 0 7.715 2.123 7.715 8.982v11.391h-5.266v-10.737c0-3.144-1.265-5.39-4.286-5.39-2.286 0-3.837 1.593-4.409 3.103-.163.408-.204 1.021-.204 1.511v11.513h-5.266ZM877.113 134.519h-5.266v-19.883h5.266v19.883Zm-2.612-28.334c1.837 0 2.939 1.225 2.939 2.776 0 1.511-1.102 2.776-3.021 2.776-1.796 0-2.898-1.265-2.898-2.776s1.143-2.776 2.98-2.776ZM859.179 114.636h4.572c-.081 1.266-.163 2.817-.163 5.553v11.268c0 4.001-.857 7.227-3.184 9.227-2.286 2.001-5.47 2.491-8.246 2.491-2.776 0-5.797-.613-7.674-1.797l1.143-3.96c1.428.857 3.837 1.756 6.49 1.756 3.511 0 6.328-1.756 6.328-6.206v-1.756h-.082c-1.266 1.837-3.511 3.185-6.491 3.185-5.225 0-9.225-3.961-9.225-9.717 0-6.41 4.613-10.534 9.797-10.534 3.47 0 5.47 1.593 6.49 3.307h.082l.163-2.817Zm-.816 10.738v-2.45c0-.49-.041-.939-.163-1.347-.613-2.082-2.327-3.552-4.736-3.552-3.02 0-5.47 2.327-5.47 6.491 0 3.063 1.837 6.043 5.47 6.043 2.246 0 4.083-1.511 4.654-3.389.163-.531.245-1.225.245-1.796ZM835.651 114.636v13.882c0 2.408.041 4.409.163 6.001h-4.612l-.245-3.307h-.123c-.857 1.47-2.939 3.797-7.021 3.797-3.592 0-7.511-2-7.511-8.9v-11.473h5.266v10.493c0 3.47 1.184 5.634 4.163 5.634 2.246 0 3.756-1.47 4.368-2.94.164-.408.286-.939.286-1.469v-11.718h5.266ZM802.684 134.519v-29.232h5.266v29.232h-5.266ZM775.87 134.519v-27.191c1.96-.286 4.695-.572 8.573-.572 3.919 0 6.735.858 8.532 2.328 1.673 1.306 2.816 3.47 2.816 6.165 0 2.531-.816 4.736-2.449 6.246-2.123 2.001-5.388 2.981-9.389 2.981-1.102 0-2.082-.041-2.857-.245v10.288h-5.226Zm5.226-23.557v9.186c.734.204 1.714.286 2.939.286 4.041 0 6.572-1.838 6.572-5.063 0-3.185-2.49-4.654-6.123-4.654-1.674 0-2.817.163-3.388.245ZM745.958 134.519v-13.228c0-2.94-.041-4.858-.164-6.655h4.532l.163 4.042h.163c1.062-3.062 3.593-4.532 5.919-4.532.49 0 .817.041 1.266.123v4.858c-.49-.081-.98-.163-1.674-.163-2.694 0-4.409 1.592-4.858 3.919-.04.449-.081.939-.081 1.388v10.248h-5.266ZM738.903 126.027h-14.614c.163 3.348 3.184 5.022 6.735 5.022 2.572 0 4.368-.368 6.123-.98l.776 3.552c-1.878.776-4.368 1.388-7.593 1.388-6.898 0-11.021-4.083-11.021-10.166 0-5.103 3.388-10.697 10.491-10.697 7.225 0 9.307 5.839 9.307 9.881 0 .857-.082 1.633-.204 2Zm-14.614-3.634h9.879c0-1.388-.735-4.736-4.695-4.736-3.47 0-4.939 2.818-5.184 4.736ZM703.987 110.063l5.103-1.224v5.797h5.102v3.96h-5.102v8.248c0 2.449.571 3.878 2.776 3.878.979 0 1.673-.122 2.122-.245l.123 3.961c-.776.285-2.245.571-3.919.571-2 0-3.633-.735-4.613-1.755-1.102-1.225-1.592-3.185-1.592-5.676v-8.982h-2.98v-3.96h2.98v-4.573ZM684.01 134.519v-13.228c0-2.94-.041-4.858-.164-6.655h4.532l.163 4.042h.163c1.062-3.062 3.592-4.532 5.919-4.532.49 0 .817.041 1.266.123v4.858c-.49-.081-.98-.163-1.674-.163-2.694 0-4.409 1.592-4.858 3.919a15.75 15.75 0 0 0-.081 1.388v10.248h-5.266ZM676.046 134.519h-4.735l-.368-2.286h-.122c-1.266 1.592-3.552 2.776-6.409 2.776-4.409 0-6.695-3.062-6.695-5.92 0-4.981 4.531-7.635 12.777-7.594v-.286c0-1.02-.408-3.429-4.368-3.429-2.122 0-4.449.694-5.919 1.592l-1.02-3.348c1.674-1.02 4.409-1.878 7.756-1.878 6.817 0 8.777 4.205 8.777 8.615v6.9c0 1.878.122 3.674.326 4.858Zm-5.388-7.226v-2.45c-4.164-.041-7.675.776-7.675 3.675 0 1.837 1.307 2.776 3.103 2.776 2.326 0 3.878-1.47 4.408-2.899.123-.367.164-.776.164-1.102ZM642.278 110.063l5.103-1.224v5.797h5.103v3.96h-5.103v8.248c0 2.449.571 3.878 2.776 3.878.98 0 1.673-.122 2.123-.245l.122 3.961c-.776.285-2.245.571-3.919.571-2 0-3.633-.735-4.613-1.755-1.102-1.225-1.592-3.185-1.592-5.676v-8.982h-2.98v-3.96h2.98v-4.573ZM615.021 133.049l1.224-4.286c1.837 1.02 4.531 1.959 7.47 1.959 3.389 0 5.266-1.47 5.266-3.715 0-2.041-1.388-3.266-5.306-4.409-5.021-1.511-8.205-3.838-8.205-8.125 0-4.573 4.082-7.962 10.327-7.962 3.389 0 5.756.654 7.43 1.47l-1.347 4.165c-1.062-.531-3.266-1.429-6.205-1.429-3.429 0-4.817 1.714-4.817 3.307 0 2.123 1.755 3.103 5.715 4.368 5.184 1.674 7.797 4.001 7.797 8.288 0 4.246-3.266 8.329-11.104 8.329-3.184 0-6.531-.898-8.245-1.96ZM597.4 126.027h-14.614c.163 3.348 3.184 5.022 6.736 5.022 2.571 0 4.368-.368 6.123-.98l.775 3.552c-1.877.776-4.367 1.388-7.592 1.388-6.899 0-11.022-4.083-11.022-10.166 0-5.103 3.388-10.697 10.491-10.697 7.225 0 9.307 5.839 9.307 9.881 0 .857-.081 1.633-.204 2Zm-14.614-3.634h9.879c0-1.388-.735-4.736-4.695-4.736-3.469 0-4.939 2.818-5.184 4.736ZM562.485 110.063l5.102-1.224v5.797h5.103v3.96h-5.103v8.248c0 2.449.572 3.878 2.776 3.878.98 0 1.674-.122 2.123-.245l.122 3.961c-.775.285-2.245.571-3.919.571-2 0-3.633-.735-4.612-1.755-1.103-1.225-1.592-3.185-1.592-5.676v-8.982h-2.98v-3.96h2.98v-4.573ZM553.234 134.519h-5.265v-19.883h5.265v19.883Zm-2.612-28.334c1.837 0 2.939 1.225 2.939 2.776 0 1.511-1.102 2.776-3.021 2.776-1.796 0-2.898-1.265-2.898-2.776s1.143-2.776 2.98-2.776ZM525.628 133.539l1.062-3.797c1.224.735 3.674 1.552 5.633 1.552 2.409 0 3.429-.939 3.429-2.205 0-1.388-.939-2-3.551-2.776-4.205-1.184-6.001-3.389-6.001-5.838 0-3.512 3.062-6.329 8.042-6.329 2.367 0 4.531.572 5.756 1.266l-1.021 3.634c-.857-.49-2.735-1.225-4.694-1.225-1.919 0-2.98.816-2.98 2.082 0 1.347 1.102 1.96 3.837 2.776 3.919 1.143 5.674 2.981 5.715 6.043 0 3.47-2.817 6.287-8.573 6.287-2.694 0-5.021-.612-6.654-1.47ZM502.652 134.519h-4.491c.082-1.306.164-3.47.164-5.634v-23.598h5.266v12.289h.081c1.266-2.042 3.715-3.43 7.062-3.43 5.307 0 9.226 4.042 9.185 10.166 0 7.145-5.062 10.697-9.919 10.697-2.817 0-5.47-.98-7.062-3.674h-.082l-.204 3.184Zm.939-11.064v2.45c0 .408.041.775.081 1.184.531 2 2.531 3.837 5.144 3.837 3.511 0 5.756-2.449 5.756-6.45 0-3.43-1.96-6.329-5.674-6.329-2.327 0-4.532 1.511-5.144 4.001-.122.409-.163.817-.163 1.307ZM491.27 126.027h-14.614c.163 3.348 3.184 5.022 6.735 5.022 2.572 0 4.368-.368 6.123-.98l.776 3.552c-1.878.776-4.368 1.388-7.593 1.388-6.899 0-11.021-4.083-11.021-10.166 0-5.103 3.388-10.697 10.491-10.697 7.225 0 9.307 5.839 9.307 9.881 0 .857-.082 1.633-.204 2Zm-14.614-3.634h9.879c0-1.388-.735-4.736-4.695-4.736-3.47 0-4.939 2.818-5.184 4.736ZM444.868 134.519h-5.878l-7.307-27.518h5.674l2.899 12.657c.734 3.389 1.51 6.981 2 9.513h.081c.449-2.695 1.266-6.084 2.123-9.595l3.184-12.575h5.878l2.899 12.943c.735 3.266 1.347 6.369 1.755 9.104h.082c.53-2.817 1.265-6.001 2.082-9.431l3.225-12.616h5.388l-8.164 27.518h-5.674l-3.103-13.636c-.776-3.226-1.306-5.675-1.633-8.574h-.081a80.917 80.917 0 0 1-1.919 8.574l-3.511 13.636ZM396.743 114.636h5.837l4.041 10.615a106.42 106.42 0 0 1 1.266 3.92h.122c.368-1.143.776-2.695 1.184-4.001l3.511-10.534h5.715l-5.429 13.351c-3.266 8.451-5.266 11.432-7.634 13.269-2.123 1.674-4.286 2.245-5.674 2.368l-1.062-4.41c.817-.122 1.919-.49 2.98-1.143 1.021-.571 2.286-1.755 3.103-3.307.204-.286.326-.612.326-.857 0-.204-.04-.531-.285-1.062l-8.001-18.209ZM377.056 133.539l1.061-3.797c1.225.735 3.674 1.552 5.634 1.552 2.408 0 3.429-.939 3.429-2.205 0-1.388-.939-2-3.552-2.776-4.204-1.184-6.001-3.389-6.001-5.838 0-3.512 3.062-6.329 8.042-6.329 2.368 0 4.531.572 5.756 1.266l-1.02 3.634c-.858-.49-2.735-1.225-4.695-1.225-1.918 0-2.98.816-2.98 2.082 0 1.347 1.102 1.96 3.837 2.776 3.919 1.143 5.675 2.981 5.715 6.043 0 3.47-2.816 6.287-8.572 6.287-2.694 0-5.021-.612-6.654-1.47ZM370.358 134.519h-4.735l-.368-2.286h-.122c-1.266 1.592-3.552 2.776-6.409 2.776-4.409 0-6.695-3.062-6.695-5.92 0-4.981 4.531-7.635 12.777-7.594v-.286c0-1.02-.408-3.429-4.368-3.429-2.122 0-4.449.694-5.919 1.592l-1.02-3.348c1.673-1.02 4.408-1.878 7.756-1.878 6.817 0 8.776 4.205 8.776 8.615v6.9c0 1.878.123 3.674.327 4.858Zm-5.389-7.226v-2.45c-4.163-.041-7.674.776-7.674 3.675 0 1.837 1.306 2.776 3.102 2.776 2.327 0 3.878-1.47 4.409-2.899.123-.367.163-.776.163-1.102ZM345.101 118.188v4.246h-11.634v7.839h12.981v4.246h-18.247v-27.518h17.594v4.246h-12.328v6.941h11.634ZM310.353 121.903h11.063v3.552h-11.063v-3.552ZM304.104 134.519h-4.735l-.367-2.286h-.123c-1.265 1.592-3.551 2.776-6.409 2.776-4.408 0-6.694-3.062-6.694-5.92 0-4.981 4.531-7.635 12.777-7.594v-.286c0-1.02-.409-3.429-4.368-3.429-2.123 0-4.45.694-5.919 1.592l-1.021-3.348c1.674-1.02 4.409-1.878 7.756-1.878 6.817 0 8.777 4.205 8.777 8.615v6.9c0 1.878.122 3.674.326 4.858Zm-5.388-7.226v-2.45c-4.164-.041-7.675.776-7.675 3.675 0 1.837 1.307 2.776 3.103 2.776 2.327 0 3.878-1.47 4.409-2.899.122-.367.163-.776.163-1.102ZM269.48 134.519v-13.228c0-2.94-.041-4.858-.163-6.655h4.531l.163 4.042h.164c1.061-3.062 3.592-4.532 5.919-4.532.49 0 .816.041 1.265.123v4.858c-.49-.081-.979-.163-1.673-.163-2.695 0-4.409 1.592-4.858 3.919-.041.449-.082.939-.082 1.388v10.248h-5.266ZM252.531 110.063l5.102-1.224v5.797h5.103v3.96h-5.103v8.248c0 2.449.572 3.878 2.776 3.878.98 0 1.674-.122 2.123-.245l.123 3.961c-.776.285-2.246.571-3.919.571-2.001 0-3.633-.735-4.613-1.755-1.102-1.225-1.592-3.185-1.592-5.676v-8.982h-2.98v-3.96h2.98v-4.573ZM238.015 134.519v-29.232h5.266v29.232h-5.266ZM205.86 107.001h5.266v15.352c0 5.675 2.49 8.533 6.49 8.533 4.164 0 6.654-2.818 6.654-8.533v-15.352h5.266v15.147c0 8.942-4.898 12.861-12.165 12.861-6.817 0-11.511-3.634-11.511-12.861v-15.147Z"/></g><defs><clipPath id="a"><path fill="#fff" d="M0 0h908v160H0z"/></clipPath></defs></svg>